<?xml version="1.0" encoding="UTF-8"?>
<svg id="Layer_1" data-name="Layer 1" xmlns="http://www.w3.org/2000/svg" viewBox="0 0 150 40">
  <defs>
    <style>
      .cls-1 {
        fill: #fff;
      }

      .cls-2 {
        fill: #ffcf86;
      }

      .cls-3 {
        fill: #f6a428;
      }
    </style>
  </defs>
  <path class="cls-1" d="M5.04,11.12v6.49H2.87V1.6H14.25v1.77H5.04v5.95H13.97v1.8H5.04Z"/>
  <path class="cls-1" d="M18.84,11.2v6.41h-2.05V8.18c0-.43,0-.89-.02-1.36s-.03-.98-.05-1.5h1.93c.02,.35,.03,.66,.04,.94s.02,.52,.03,.73,.01,.38,.02,.52,0,.24,0,.31h.05c.23-.74,.48-1.32,.75-1.73,.27-.38,.57-.64,.91-.79s.76-.22,1.26-.22c.28,0,.56,.04,.83,.11v1.87c-.26-.08-.62-.11-1.09-.11-.85,0-1.5,.37-1.94,1.1s-.67,1.78-.67,3.14Z"/>
  <path class="cls-1" d="M27.63,17.84c-1.23,0-2.16-.33-2.78-.98s-.93-1.55-.93-2.68c0-1.27,.42-2.25,1.26-2.93s2.19-1.05,4.05-1.09l2.76-.05v-.67c0-1-.21-1.72-.64-2.15s-1.09-.65-2-.65-1.58,.16-2,.47-.67,.81-.75,1.49l-2.14-.19c.35-2.21,1.99-3.32,4.93-3.32,1.55,0,2.71,.35,3.49,1.06s1.17,1.73,1.17,3.07v5.29c0,.61,.08,1.06,.24,1.37s.46,.46,.91,.46c.21,0,.44-.03,.67-.08v1.27c-.26,.06-.52,.11-.78,.14s-.53,.05-.8,.05c-.76,0-1.31-.2-1.65-.6s-.54-1.02-.59-1.87h-.07c-.52,.94-1.13,1.6-1.82,1.99s-1.54,.59-2.53,.59Zm4.35-6.29l-2.24,.05c-.95,0-1.68,.11-2.18,.3-.5,.18-.88,.46-1.15,.84s-.4,.87-.4,1.49c0,.67,.18,1.18,.54,1.55s.87,.55,1.54,.55c.76,0,1.42-.17,2-.51,.58-.34,1.04-.81,1.38-1.4s.51-1.21,.51-1.83v-1.01Z"/>
  <path class="cls-1" d="M39.52,10.49v7.12h-2.03V7.94c0-.72,0-1.3-.02-1.73s-.03-.73-.05-.89h1.93c.02,.17,.03,.37,.04,.61s.03,.49,.03,.76,.01,.51,.01,.73h.03c.44-.87,.94-1.48,1.51-1.82s1.26-.51,2.08-.51c.93,0,1.67,.19,2.21,.56s.92,.96,1.13,1.77h.03c.42-.83,.94-1.42,1.54-1.78s1.33-.55,2.19-.55c1.24,0,2.15,.34,2.71,1.01s.84,1.78,.84,3.32v8.19h-2.02v-7.79c0-1.19-.16-2.01-.49-2.47s-.91-.68-1.76-.68c-.89,0-1.59,.33-2.08,.99s-.75,1.6-.75,2.82v7.12h-2.02v-7.79c0-1.19-.16-2.01-.49-2.47s-.91-.68-1.76-.68-1.56,.33-2.07,1-.76,1.61-.76,2.82Z"/>
  <path class="cls-1" d="M61.55,17.52c-.67,.18-1.36,.27-2.07,.27-.82,0-1.43-.23-1.84-.7s-.61-1.16-.61-2.08V6.81h-1.42v-1.49h1.5l.6-2.75h1.36v2.75h2.27v1.49h-2.27v7.76c0,.59,.1,1.01,.29,1.24s.53,.36,1.01,.36c.26,0,.65-.05,1.18-.16v1.51Z"/>
  <path class="cls-1" d="M65.32,.75v1.95h-2.05V.75h2.05Zm0,4.57v12.29h-2.05V5.32h2.05Z"/>
  <path class="cls-1" d="M76.37,17.61c-.02-.08-.03-.24-.05-.47s-.03-.49-.05-.77-.02-.53-.02-.74h-.05c-.38,.79-.88,1.35-1.51,1.69s-1.4,.51-2.32,.51c-1.55,0-2.69-.52-3.43-1.57s-1.1-2.63-1.1-4.75,.38-3.75,1.13-4.82,1.88-1.61,3.39-1.61c.93,0,1.71,.17,2.33,.51s1.12,.88,1.5,1.62h.02l-.02-1.37V.75h2.05V15.08c0,.64,0,1.18,.02,1.6s.03,.73,.05,.94h-1.95Zm-6.36-6.16c0,1.72,.23,2.95,.68,3.69s1.19,1.11,2.22,1.11c1.16,0,2-.4,2.52-1.2s.78-2.05,.78-3.74-.26-2.82-.78-3.58-1.36-1.14-2.5-1.14c-1.03,0-1.77,.38-2.23,1.14s-.69,2-.69,3.71Z"/>
  <path class="cls-1" d="M82.96,11.9c0,1.41,.29,2.5,.87,3.26s1.44,1.15,2.56,1.15c.89,0,1.6-.18,2.13-.53s.9-.81,1.09-1.35l1.8,.51c-.73,1.94-2.41,2.91-5.01,2.91-1.82,0-3.2-.54-4.15-1.62s-1.43-2.69-1.43-4.83,.48-3.59,1.43-4.67,2.31-1.62,4.07-1.62,3.17,.55,4.07,1.64,1.35,2.72,1.35,4.9v.27h-8.77Zm6.66-1.57c-.11-1.3-.44-2.24-.99-2.83s-1.33-.89-2.35-.89-1.78,.33-2.36,.99-.89,1.57-.94,2.73h6.64Z"/>
  <path class="cls-1" d="M96.43,10.49v7.12h-2.05V7.94c0-.72,0-1.3-.02-1.73s-.03-.73-.05-.89h1.93c.02,.14,.03,.33,.04,.55s.02,.46,.03,.73,.02,.54,.02,.83h.03c.47-.85,1.01-1.45,1.63-1.8s1.38-.53,2.3-.53c1.35,0,2.33,.34,2.96,1.03s.94,1.79,.94,3.3v8.19h-2.06v-7.79c0-1.17-.19-1.99-.57-2.45s-1.03-.69-1.97-.69c-.98,0-1.76,.34-2.33,1.01s-.85,1.61-.85,2.81Z"/>
  <path class="cls-1" d="M116.51,14.21c0,1.16-.44,2.05-1.31,2.68s-2.1,.94-3.68,.94-2.71-.25-3.54-.76-1.37-1.29-1.62-2.36l1.81-.35c.17,.66,.53,1.14,1.08,1.45s1.3,.46,2.27,.46c1.04,0,1.8-.16,2.28-.48s.72-.8,.72-1.43c0-.48-.17-.88-.5-1.18s-.87-.55-1.61-.75c-.88-.23-1.58-.43-2.1-.58s-.92-.28-1.2-.39-.5-.21-.67-.31c-.5-.29-.89-.64-1.17-1.06s-.42-.93-.42-1.53c0-1.12,.4-1.98,1.2-2.56s1.96-.88,3.49-.88c1.36,0,2.43,.24,3.23,.72s1.3,1.24,1.52,2.3l-1.84,.23c-.11-.55-.42-.96-.91-1.26s-1.16-.44-1.99-.44c-.92,0-1.61,.14-2.05,.42s-.66,.7-.66,1.27c0,.42,.12,.76,.37,1.03s.73,.49,1.43,.66c.95,.23,1.85,.48,2.7,.74s1.47,.54,1.84,.8c.43,.31,.76,.68,.98,1.1s.34,.93,.34,1.52Z"/>
  <g>
    <path class="cls-1" d="M51.14,32.63c0,1.43-.38,2.53-1.12,3.26-.75,.73-1.82,1.1-3.18,1.1s-2.35-.36-3.04-1.06c-.69-.71-1.04-1.77-1.04-3.15v-10.26h-2.67v10.44c0,1.3,.28,2.43,.84,3.37,.56,.94,1.36,1.67,2.38,2.17,1.01,.5,2.2,.75,3.54,.75s2.63-.26,3.66-.78c1.04-.52,1.86-1.28,2.43-2.25,.57-.97,.86-2.13,.86-3.47v-10.24h-2.66v10.11Z"/>
    <path class="cls-1" d="M62.88,26c-.96,0-1.77,.19-2.42,.56-.48,.27-.92,.69-1.31,1.24v-.06c0-.27-.02-.51-.03-.73-.01-.23-.03-.41-.04-.56l-.02-.22h-2.45l.04,.29c.02,.15,.04,.44,.05,.86,.01,.43,.02,1.01,.02,1.73v9.92h2.54v-7.37c0-1.13,.27-2.02,.79-2.65,.52-.62,1.22-.92,2.14-.92,.85,0,1.45,.2,1.77,.6,.34,.42,.51,1.19,.51,2.3v8.04h2.56v-8.44c0-1.56-.34-2.73-1-3.46-.67-.74-1.73-1.12-3.15-1.12Z"/>
    <rect class="cls-1" x="69.6" y="21.66" width="2.54" height="2.45"/>
    <rect class="cls-1" x="69.6" y="26.23" width="2.54" height="12.79"/>
    <path class="cls-1" d="M79.81,34.42c-.08,.24-.17,.51-.27,.82-.1,.3-.19,.62-.29,.94-.01,.04-.03,.09-.04,.13l-.28-.99c-.13-.46-.22-.76-.28-.92l-2.76-8.17h-2.72l4.58,12.63,.06,.17h2.77l4.78-12.79h-2.71l-2.85,8.19Z"/>
    <path class="cls-1" d="M91.58,26c-1.83,0-3.27,.58-4.26,1.71-.99,1.12-1.49,2.75-1.49,4.83,0,2.19,.5,3.87,1.49,4.99,1,1.13,2.46,1.71,4.34,1.71,2.71,0,4.47-1.03,5.24-3.07l.1-.25-2.28-.65-.08,.22c-.17,.49-.5,.9-.99,1.23-.49,.33-1.16,.49-1.99,.49-1.05,0-1.82-.34-2.36-1.05-.51-.67-.79-1.63-.82-2.86h8.77v-.52c0-2.22-.47-3.92-1.41-5.06-.95-1.15-2.38-1.73-4.26-1.73Zm-3.06,5.24c.08-.97,.37-1.75,.86-2.32,.53-.61,1.24-.91,2.17-.91s1.67,.27,2.17,.81c.47,.51,.77,1.32,.9,2.42h-6.09Z"/>
    <path class="cls-1" d="M104.57,26c-.53,0-.99,.08-1.36,.24-.38,.17-.72,.46-1.02,.88-.13,.19-.25,.42-.37,.69l-.07-1.58h-2.43v.26c.03,.52,.05,1.02,.06,1.5,.01,.48,.02,.93,.02,1.36v9.68h2.54v-6.66c0-1.31,.21-2.32,.63-3.01,.4-.66,.97-.98,1.73-.98,.44,0,.79,.04,1.02,.1l.32,.09v-2.4l-.18-.05c-.29-.08-.59-.12-.9-.12Z"/>
    <path class="cls-1" d="M115.41,32.56c-.4-.28-1.02-.56-1.91-.84-.86-.27-1.77-.52-2.72-.75-.65-.16-1.09-.36-1.31-.59-.21-.22-.31-.5-.31-.86,0-.48,.18-.83,.54-1.06,.4-.25,1.04-.38,1.91-.38,.79,0,1.41,.14,1.87,.4,.44,.26,.7,.61,.8,1.09l.05,.23,2.34-.29-.05-.26c-.23-1.12-.77-1.95-1.63-2.46-.84-.5-1.97-.75-3.36-.75-1.58,0-2.8,.31-3.64,.93-.86,.63-1.3,1.56-1.3,2.76,0,.65,.16,1.22,.46,1.67,.3,.45,.72,.83,1.25,1.13,.18,.11,.42,.22,.71,.33,.29,.11,.7,.25,1.22,.4,.52,.15,1.22,.35,2.1,.58,.7,.19,1.21,.42,1.51,.69,.28,.26,.42,.58,.42,1,0,.55-.2,.95-.61,1.22-.44,.29-1.16,.44-2.14,.44-.92,0-1.64-.14-2.15-.43-.49-.28-.8-.7-.96-1.29l-.06-.23-2.29,.45,.06,.25c.26,1.13,.85,1.98,1.73,2.51,.87,.53,2.1,.79,3.67,.79s2.91-.33,3.82-.99c.94-.68,1.42-1.65,1.42-2.88,0-.63-.12-1.18-.36-1.63-.24-.45-.6-.85-1.06-1.18Z"/>
    <rect class="cls-1" x="118.73" y="21.66" width="2.54" height="2.45"/>
    <rect class="cls-1" x="118.73" y="26.23" width="2.54" height="12.79"/>
    <path class="cls-1" d="M127.7,37.08c-.4,0-.67-.09-.81-.26-.11-.13-.23-.43-.23-1.09v-7.51h2.27v-1.99h-2.27v-2.75h-1.81l-.6,2.75h-1.55v1.99h1.42v7.95c0,.98,.23,1.74,.68,2.25,.46,.52,1.14,.78,2.03,.78,.73,0,1.45-.09,2.13-.28l.18-.05v-2.01l-.3,.06c-.51,.1-.89,.15-1.13,.15Z"/>
    <path class="cls-1" d="M135.54,26c-1.83,0-3.27,.58-4.26,1.71-.99,1.12-1.49,2.75-1.49,4.83,0,2.19,.5,3.87,1.49,4.99,1,1.13,2.46,1.71,4.34,1.71,2.71,0,4.47-1.03,5.24-3.07l.1-.25-2.28-.65-.08,.22c-.17,.49-.5,.9-.99,1.23-.49,.33-1.16,.49-1.99,.49-1.05,0-1.82-.34-2.36-1.05-.51-.67-.79-1.63-.82-2.86h8.77v-.52c0-2.22-.47-3.93-1.41-5.06-.95-1.15-2.38-1.73-4.26-1.73Zm-3.06,5.24c.08-.97,.37-1.75,.86-2.32,.53-.61,1.24-.91,2.17-.91s1.67,.26,2.17,.81c.47,.51,.77,1.32,.9,2.42h-6.09Z"/>
    <path class="cls-1" d="M148.24,36.93c-.51,.1-.89,.15-1.13,.15-.4,0-.67-.09-.81-.26-.11-.13-.23-.43-.23-1.09v-7.51h2.27v-1.99h-2.27v-2.75h-1.81l-.6,2.75h-1.55v1.99h1.42v7.95c0,.98,.23,1.74,.68,2.25,.46,.52,1.14,.78,2.03,.78,.73,0,1.45-.09,2.13-.28l.18-.05v-2.01l-.3,.06Z"/>
  </g>
  <path class="cls-3" d="M146.98,13.35h-4v-4h4v4Zm-8,0h-4v-4h4v4Zm-8,0h-4v-4h4v4Zm-8,0h-4v-4h4v4Z"/>
  <polygon class="cls-2" points="9.74 37.14 1.46 28.86 4.29 26.04 9.74 31.49 16.59 24.62 23.46 31.49 30.33 24.62 38.61 32.9 35.78 35.73 30.33 30.28 23.46 37.14 16.6 30.28 9.74 37.14"/>
</svg>